<svg width="1200" height="720" viewBox="0 0 1200 720" fill="none" xmlns="http://www.w3.org/2000/svg">
  <rect width="1200" height="720" fill="#F6F7F9"/>
  <g opacity="0.55" stroke="#C5CCD7" stroke-width="1">
    <path d="M0 100H1200"/><path d="M0 180H1200"/><path d="M0 260H1200"/><path d="M0 340H1200"/>
    <path d="M100 0V380"/><path d="M240 0V380"/><path d="M380 0V380"/><path d="M520 0V380"/><path d="M660 0V380"/><path d="M800 0V380"/><path d="M940 0V380"/><path d="M1080 0V380"/>
  </g>
  <rect x="0" y="500" width="1200" height="220" fill="#3A4659"/>
  <circle cx="600" cy="260" r="46" fill="#2F3A4A"/>
  <rect x="588" y="220" width="24" height="250" rx="12" fill="#BAC3D0"/>
  <path d="M540 430C540 462 565 488 600 488C635 488 660 462 660 430" stroke="#BAC3D0" stroke-width="16" stroke-linecap="round"/>
</svg>
