<svg xmlns="http://www.w3.org/2000/svg" viewBox="0 0 1200 675"><rect width="1200" height="675" fill="#f4efe6"/><circle cx="600" cy="340" r="220" fill="none" stroke="#746556" stroke-width="16" stroke-dasharray="24 24"/><g fill="#4d4136"><circle cx="600" cy="120" r="28"/><circle cx="820" cy="340" r="28"/><circle cx="600" cy="560" r="28"/><circle cx="380" cy="340" r="28"/></g><g fill="#b55d47"><path d="M560 90h80v18h-80z"/><path d="M850 300h18v80h-18z"/><path d="M560 568h80v18h-80z"/><path d="M332 300h18v80h-18z"/></g><g fill="#8a7a66"><rect x="520" y="190" width="160" height="60"/><rect x="760" y="300" width="120" height="80"/><rect x="510" y="430" width="180" height="70"/><rect x="300" y="290" width="120" height="90"/></g><path d="M540 330l120 0" stroke="#3f342a" stroke-width="8"/><path d="M600 270v120" stroke="#3f342a" stroke-width="8"/></svg>