<svg xmlns="http://www.w3.org/2000/svg" viewBox="0 0 1200 675"><rect width="1200" height="675" fill="#f4efe6"/><rect y="500" width="1200" height="175" fill="#d6c6ad"/><rect x="500" y="210" width="210" height="290" fill="#4d4136"/><rect x="560" y="260" width="90" height="70" fill="#efe6d8"/><rect x="160" y="380" width="170" height="120" fill="#8a7a66"/><rect x="860" y="340" width="220" height="160" fill="#7b6a58"/><rect x="350" y="420" width="120" height="80" fill="#6f7f6e"/><g fill="#efe6d8" stroke="#4f4338"><rect x="430" y="120" width="120" height="70"/><rect x="660" y="100" width="120" height="70"/><rect x="780" y="180" width="120" height="70"/></g><g stroke="#b55d47" stroke-width="5" fill="none"><path d="M605 360C500 260 460 220 490 150"/><path d="M605 360C730 260 730 210 720 135"/><path d="M605 360C790 300 860 260 850 210"/></g><circle cx="605" cy="360" r="18" fill="#b55d47"/></svg>