<svg xmlns="http://www.w3.org/2000/svg" viewBox="0 0 1200 675"><rect width="1200" height="675" fill="#f4efe6"/><ellipse cx="600" cy="540" rx="500" ry="110" fill="#d9ccb6"/><path d="M220 500c120-190 620-210 760-30-30 90-170 130-380 120-210-10-350-20-380-90Z" fill="#c9b89f"/><circle cx="520" cy="330" r="18" fill="#3f342a"/><path d="M490 360h220v70H490z" fill="#8a7a66"/><path d="M310 430h130l-10 55H300z" fill="#6f7f6e"/><path d="M750 410h180l-20 70H740z" fill="#7b6a58"/><path d="M790 350l48-25 52 15-20 24z" fill="#b55d47"/><path d="M410 415l38-40 36 35-28 30z" fill="#b55d47"/><path d="M590 280l40-70 42 70z" fill="#3f342a"/><path d="M560 290h100v22H560z" fill="#ece3d6"/><path d="M96 570c42-22 72-18 98 7-34 26-68 28-98-7Z" fill="#e5d8c7" stroke="#4f4338"/><path d="M170 585c35-20 68-15 93 11-30 21-62 24-93-11Z" fill="#dfd1bd" stroke="#4f4338"/><path d="M250 595c35-16 66-10 88 12-33 19-63 20-88-12Z" fill="#e8dccb" stroke="#4f4338"/></svg>