<svg xmlns="http://www.w3.org/2000/svg" viewBox="0 0 1200 675"><rect width="1200" height="675" fill="#f4efe6"/><rect x="120" y="430" width="960" height="150" fill="#d8cab3"/><path d="M150 410h170v40H150zM380 390h170v60H380zM820 400h220v50H820z" fill="#8a7a66"/><path d="M600 220c120 0 170 90 160 170-10 80-80 130-160 130s-150-50-160-130c-10-80 40-170 160-170Z" fill="#e8dccb" stroke="#4f4338" stroke-width="6"/><path d="M560 300c40-30 90-32 130 0-44 58-90 72-130 0Z" fill="#b55d47" opacity=".75"/><path d="M700 180c-15 40-40 65-80 80" stroke="#3f342a" stroke-width="10"/><circle cx="700" cy="170" r="24" fill="#3f342a"/></svg>