<svg xmlns="http://www.w3.org/2000/svg" viewBox="0 0 1200 675"><rect width="1200" height="675" fill="#f4efe6"/><rect y="520" width="1200" height="155" fill="#d9ccb6"/><rect x="120" y="330" width="160" height="190" fill="#7b6a58"/><rect x="330" y="390" width="190" height="130" fill="#6f7f6e"/><rect x="580" y="350" width="170" height="170" fill="#8a7a66"/><rect x="800" y="300" width="220" height="220" fill="#7b6a58"/><path d="M80 500c70-80 130-80 220 0" fill="none" stroke="#4f4338" stroke-width="5"/><path d="M300 500c90-120 150-120 260 0" fill="none" stroke="#4f4338" stroke-width="5"/><path d="M550 500c70-90 140-90 220 0" fill="none" stroke="#4f4338" stroke-width="5"/><path d="M780 500c90-120 180-120 300 0" fill="none" stroke="#4f4338" stroke-width="5"/><g fill="#b55d47"><circle cx="200" cy="500" r="14"/><circle cx="430" cy="500" r="14"/><circle cx="660" cy="500" r="14"/><circle cx="920" cy="500" r="14"/></g></svg>