<svg xmlns="http://www.w3.org/2000/svg" viewBox="0 0 1200 675"><rect width="1200" height="675" fill="#f4efe6"/><rect y="500" width="1200" height="175" fill="#d7c7ad"/><path d="M120 500c110-170 290-180 420-60" fill="#6f7f6e"/><rect x="620" y="350" width="190" height="150" fill="#7b6a58"/><rect x="860" y="390" width="180" height="110" fill="#8a7a66"/><path d="M350 480l210-70 130 70" fill="#c7b79d"/><g fill="#4d4136"><circle cx="520" cy="445" r="22"/><circle cx="560" cy="430" r="22"/><circle cx="600" cy="445" r="22"/></g><path d="M180 560h360" stroke="#4f4338" stroke-width="8"/><path d="M250 520l90-40 40 80" fill="none" stroke="#b55d47" stroke-width="8"/><circle cx="700" cy="300" r="28" fill="#4d4136"/><path d="M700 328v90l130-55" stroke="#4d4136" stroke-width="8" fill="none"/><g fill="#e8dccb" stroke="#4f4338"><ellipse cx="95" cy="585" rx="44" ry="18"/><ellipse cx="160" cy="598" rx="34" ry="14"/></g></svg>