<svg xmlns="http://www.w3.org/2000/svg" width="1200" height="675" viewBox="0 0 1200 675" role="img" aria-labelledby="title desc">
  <title>Capex front-loaded, payoff later</title>
  <desc>A heavy flywheel and crane build data center capacity while future cash flow sits in the distance.</desc>
  <rect width="1200" height="675" fill="#f4f1ea"/>
  <rect x="70" y="90" width="1060" height="495" rx="24" fill="#eee7dc" stroke="#c6b9a8"/>

  <g>
    <circle cx="300" cy="420" r="140" fill="#d8cdbd" stroke="#5f574c" stroke-width="8"/>
    <circle cx="300" cy="420" r="70" fill="#f4f1ea" stroke="#5f574c" stroke-width="6"/>
    <path d="M300 280v280M160 420h280" stroke="#6f6558" stroke-width="6"/>
  </g>

  <g stroke="#5f574c" stroke-width="6" fill="none" stroke-linecap="round">
    <line x1="470" y1="520" x2="470" y2="170"/>
    <line x1="470" y1="170" x2="690" y2="170"/>
    <line x1="690" y1="170" x2="640" y2="230"/>
    <line x1="530" y1="520" x2="740" y2="520"/>
  </g>

  <g fill="#fffaf2" stroke="#5f574c" stroke-width="4">
    <rect x="760" y="360" width="120" height="140" rx="12"/>
    <rect x="900" y="330" width="120" height="170" rx="12"/>
  </g>

  <g stroke="#8e7c66" stroke-width="5" fill="none" stroke-linecap="round">
    <path d="M760 260c90-35 170-15 270 36"/>
    <path d="M770 225c100-50 200-35 290 26" opacity="0.6"/>
    <path d="M1030 296l-26 2 10-24"/>
  </g>
</svg>
