<svg xmlns="http://www.w3.org/2000/svg" width="1200" height="675" viewBox="0 0 1200 675" role="img" aria-labelledby="title desc">
  <title>Cloud utilization risk</title>
  <desc>Data center racks with a mix of active and idle GPU capacity.</desc>
  <rect width="1200" height="675" fill="#f4f1ea"/>
  <rect x="90" y="90" width="1020" height="495" rx="24" fill="#eee7dc" stroke="#c6b9a8"/>

  <g fill="#fffaf2" stroke="#5f574c" stroke-width="4">
    <rect x="170" y="160" width="130" height="350" rx="12"/>
    <rect x="330" y="160" width="130" height="350" rx="12"/>
    <rect x="490" y="160" width="130" height="350" rx="12"/>
    <rect x="650" y="160" width="130" height="350" rx="12"/>
    <rect x="810" y="160" width="130" height="350" rx="12"/>
  </g>

  <g>
    <rect x="185" y="190" width="100" height="40" rx="6" fill="#baa17e"/>
    <rect x="185" y="247" width="100" height="40" rx="6" fill="#baa17e"/>
    <rect x="185" y="304" width="100" height="40" rx="6" fill="#baa17e"/>
    <rect x="345" y="190" width="100" height="40" rx="6" fill="#baa17e"/>
    <rect x="345" y="247" width="100" height="40" rx="6" fill="#baa17e"/>

    <rect x="505" y="190" width="100" height="40" rx="6" fill="#d8cdbd"/>
    <rect x="505" y="247" width="100" height="40" rx="6" fill="#d8cdbd"/>
    <rect x="505" y="304" width="100" height="40" rx="6" fill="#d8cdbd"/>

    <rect x="665" y="190" width="100" height="40" rx="6" fill="#baa17e"/>
    <rect x="665" y="247" width="100" height="40" rx="6" fill="#baa17e"/>
    <rect x="665" y="304" width="100" height="40" rx="6" fill="#d8cdbd"/>

    <rect x="825" y="190" width="100" height="40" rx="6" fill="#d8cdbd"/>
    <rect x="825" y="247" width="100" height="40" rx="6" fill="#d8cdbd"/>
    <rect x="825" y="304" width="100" height="40" rx="6" fill="#d8cdbd"/>
  </g>

  <g stroke="#6f6558" stroke-width="3" stroke-linecap="round">
    <line x1="210" y1="540" x2="910" y2="540"/>
    <line x1="210" y1="560" x2="910" y2="560" opacity="0.5"/>
  </g>
</svg>
