<svg xmlns="http://www.w3.org/2000/svg" width="1200" height="675" viewBox="0 0 1200 675" role="img" aria-labelledby="title desc">
  <title>Hardware paid now, software owes later</title>
  <desc>Hardware side receives immediate cash while software side holds future liability.</desc>
  <rect width="1200" height="675" fill="#f4f1ea"/>
  <rect x="70" y="80" width="510" height="515" rx="22" fill="#e8dfd1" stroke="#c6b9a8"/>
  <rect x="620" y="80" width="510" height="515" rx="22" fill="#efe8dd" stroke="#c6b9a8"/>

  <g stroke="#5f574c" stroke-width="4" fill="#fffaf2">
    <rect x="150" y="220" width="160" height="120" rx="16"/>
    <rect x="340" y="190" width="170" height="150" rx="16"/>
    <circle cx="210" cy="405" r="26" fill="#baa17e"/>
    <circle cx="270" cy="430" r="26" fill="#baa17e"/>
    <circle cx="340" cy="402" r="26" fill="#baa17e"/>
  </g>

  <g stroke="#6f6558" stroke-width="3" fill="none" stroke-linecap="round">
    <path d="M196 260h68M196 285h68"/>
    <path d="M380 245h92M380 272h92M380 299h70"/>
    <path d="M200 405h20M264 430h12M332 402h16"/>
  </g>

  <g>
    <path d="M690 170h320c18 0 32 14 32 32v256c0 18-14 32-32 32H690c-18 0-32-14-32-32V202c0-18 14-32 32-32z" fill="#fffaf2" stroke="#5f574c" stroke-width="4"/>
    <path d="M720 238h260M720 282h260M720 326h210" stroke="#b2a28f" stroke-width="5" stroke-linecap="round"/>
    <circle cx="960" cy="415" r="34" fill="#baa17e"/>
    <path d="M944 415h32M960 399v32" stroke="#fffaf2" stroke-width="4" stroke-linecap="round"/>
  </g>

  <path d="M542 334h62" stroke="#6a6156" stroke-width="8" stroke-linecap="round"/>
  <path d="M578 312l26 22-26 22" fill="none" stroke="#6a6156" stroke-width="8" stroke-linecap="round" stroke-linejoin="round"/>
</svg>
