<svg xmlns="http://www.w3.org/2000/svg" width="1600" height="900" viewBox="0 0 1600 900" role="img" aria-labelledby="title desc">
  <title>Editorial AI illustration placeholder</title>
  <desc>Muted editorial placeholder artwork for the AI cost-cycle essay.</desc>
  <defs>
    <linearGradient id="bg" x1="0" y1="0" x2="1" y2="1">
      <stop offset="0%" stop-color="#f7f2e9"/>
      <stop offset="100%" stop-color="#ece6dc"/>
    </linearGradient>
    <linearGradient id="accent" x1="0" y1="0" x2="1" y2="0">
      <stop offset="0%" stop-color="#9b8f7a"/>
      <stop offset="100%" stop-color="#7b6f5d"/>
    </linearGradient>
  </defs>
  <rect width="1600" height="900" fill="url(#bg)"/>
  <g opacity="0.3" stroke="#9f9381" stroke-width="2" fill="none">
    <path d="M120 700 C 340 500, 520 760, 760 560 S 1250 320, 1480 460"/>
    <path d="M120 760 C 340 560, 520 820, 760 620 S 1250 380, 1480 520"/>
  </g>
  <g>
    <rect x="190" y="220" width="320" height="160" rx="20" fill="#f3ede3" stroke="#9f9381"/>
    <rect x="640" y="130" width="320" height="160" rx="20" fill="#f3ede3" stroke="#9f9381"/>
    <rect x="1090" y="220" width="320" height="160" rx="20" fill="#f3ede3" stroke="#9f9381"/>
    <rect x="640" y="500" width="320" height="160" rx="20" fill="#f3ede3" stroke="#9f9381"/>
  </g>
  <g stroke="url(#accent)" stroke-width="8" stroke-linecap="round">
    <line x1="510" y1="300" x2="640" y2="210"/>
    <line x1="960" y1="210" x2="1090" y2="300"/>
    <line x1="1120" y1="380" x2="900" y2="500"/>
    <line x1="700" y1="500" x2="510" y2="380"/>
  </g>
  <text x="800" y="790" text-anchor="middle" font-family="Georgia, serif" font-size="42" fill="#5d554a">AI Infrastructure Economics</text>
</svg>
