<svg xmlns="http://www.w3.org/2000/svg" width="1200" height="675" viewBox="0 0 1200 675" role="img" aria-labelledby="title desc">
  <title>Inference pays the bill</title>
  <desc>Many recurring tiny requests flow into a growing utility-style bill.</desc>
  <rect width="1200" height="675" fill="#f4f1ea"/>
  <rect x="80" y="90" width="1040" height="495" rx="24" fill="#eee7dc" stroke="#c6b9a8"/>

  <g fill="#baa17e" opacity="0.9">
    <circle cx="175" cy="180" r="8"/><circle cx="210" cy="220" r="7"/><circle cx="252" cy="195" r="8"/>
    <circle cx="165" cy="275" r="7"/><circle cx="218" cy="305" r="8"/><circle cx="260" cy="338" r="7"/>
    <circle cx="175" cy="398" r="8"/><circle cx="225" cy="430" r="7"/><circle cx="270" cy="463" r="8"/>
    <circle cx="352" cy="168" r="7"/><circle cx="388" cy="203" r="8"/><circle cx="420" cy="240" r="7"/>
    <circle cx="365" cy="315" r="8"/><circle cx="402" cy="350" r="7"/><circle cx="436" cy="385" r="8"/>
    <circle cx="360" cy="460" r="8"/><circle cx="405" cy="495" r="7"/>
  </g>

  <g stroke="#8e7c66" stroke-width="4" fill="none" stroke-linecap="round">
    <path d="M180 180C300 220 380 260 520 320"/>
    <path d="M170 275C280 300 390 315 520 350"/>
    <path d="M178 398C300 400 400 430 520 390"/>
    <path d="M355 168C420 210 470 255 520 305"/>
    <path d="M362 460C430 460 470 430 520 405"/>
  </g>

  <g>
    <path d="M560 160h430c18 0 32 14 32 32v290c0 18-14 32-32 32H560c-18 0-32-14-32-32V192c0-18 14-32 32-32z" fill="#fffaf2" stroke="#5f574c" stroke-width="4"/>
    <path d="M600 224h300M600 264h300M600 304h300M600 344h230" stroke="#b2a28f" stroke-width="5" stroke-linecap="round"/>
    <path d="M600 430h170" stroke="#7b6b58" stroke-width="8" stroke-linecap="round"/>
  </g>
</svg>
